<svg xmlns="http://www.w3.org/2000/svg" width="1600" height="900" viewBox="0 0 1600 900">
  <defs>
    <linearGradient id="bg" x1="0" y1="0" x2="1" y2="1">
      <stop offset="0%" stop-color="#eef4ff"/>
      <stop offset="100%" stop-color="#fbfdff"/>
    </linearGradient>
    <linearGradient id="header" x1="0" y1="0" x2="1" y2="0">
      <stop offset="0%" stop-color="#ffffff" stop-opacity="0.98"/>
      <stop offset="100%" stop-color="#edf2ff" stop-opacity="0.94"/>
    </linearGradient>
    <linearGradient id="blue" x1="0" y1="0" x2="1" y2="1">
      <stop offset="0%" stop-color="#d8e5ff"/>
      <stop offset="100%" stop-color="#f2f6ff"/>
    </linearGradient>
    <linearGradient id="green" x1="0" y1="0" x2="1" y2="1">
      <stop offset="0%" stop-color="#ddf5e7"/>
      <stop offset="100%" stop-color="#f3fff8"/>
    </linearGradient>
    <linearGradient id="amber" x1="0" y1="0" x2="1" y2="1">
      <stop offset="0%" stop-color="#ffe8c9"/>
      <stop offset="100%" stop-color="#fff8ef"/>
    </linearGradient>
    <linearGradient id="rose" x1="0" y1="0" x2="1" y2="1">
      <stop offset="0%" stop-color="#ffd9e1"/>
      <stop offset="100%" stop-color="#ffeff3"/>
    </linearGradient>
    <filter id="shadow" x="-20%" y="-20%" width="140%" height="140%">
      <feDropShadow dx="0" dy="10" stdDeviation="18" flood-color="#7a85bf" flood-opacity="0.16"/>
    </filter>
    <marker id="arrow" markerWidth="12" markerHeight="12" refX="10" refY="6" orient="auto" markerUnits="strokeWidth">
      <path d="M0,0 L12,6 L0,12 z" fill="#9ba5c6"/>
    </marker>
  </defs>
  <style><![CDATA[
    text { font-family: "Microsoft YaHei", "PingFang SC", Arial, sans-serif; }
    .title { font-size: 54px; font-weight: 800; fill: #6672e1; letter-spacing: 1px; }
    .tab { font-size: 24px; font-weight: 800; fill: #6e76c4; }
    .tab-active { fill: #ffffff; }
    .main { font-size: 24px; font-weight: 800; fill: #24344d; }
    .sub { font-size: 16px; fill: #65748f; }
    .cardTitle { font-size: 24px; font-weight: 800; fill: #26334b; }
    .cardSub { font-size: 16px; fill: #60708f; }
    .rowTitle { font-size: 18px; font-weight: 800; fill: #2f3b52; }
    .rowBody { font-size: 16px; fill: #55667f; }
    .note { font-size: 17px; fill: #4b5a76; }
    .muted { fill: #75839f; }
    .chip { font-size: 16px; font-weight: 700; fill: #43536f; }
    .summary { font-size: 22px; font-weight: 800; fill: #36415a; }
  ]]></style>

  <rect x="0" y="0" width="1600" height="900" fill="url(#bg)"/>
  <circle cx="1440" cy="104" r="160" fill="#dbe6ff" opacity="0.34"/>
  <circle cx="124" cy="810" r="230" fill="#e8f6ff" opacity="0.34"/>
  <rect x="22" y="18" width="1556" height="100" rx="18" fill="url(#header)"/>
  <rect x="0" y="0" width="1600" height="900" fill="none" stroke="#aeb9ef" stroke-width="2" opacity="0.55"/>

  <g transform="translate(44,31)">
    <rect x="2" y="24" width="64" height="50" rx="10" fill="#d9ecff" stroke="#2c7fb8" stroke-width="4"/>
    <path d="M10 35 Q34 20 58 35" fill="none" stroke="#2c7fb8" stroke-width="4"/>
    <path d="M10 46 Q34 31 58 46" fill="none" stroke="#2c7fb8" stroke-width="4"/>
    <circle cx="34" cy="10" r="10" fill="#ffd54f" stroke="#e0a800" stroke-width="3"/>
    <path d="M34 0 L34 5" stroke="#2c7fb8" stroke-width="4" stroke-linecap="round"/>
  </g>

  <text x="136" y="76" class="title">双端解决方案总览</text>

  <g>
    <rect x="560" y="36" width="162" height="48" rx="24" fill="#d8dcfa"/>
    <text x="601" y="68" class="tab">项目背景</text>
    <rect x="750" y="36" width="162" height="48" rx="24" fill="#5f6bd8"/>
    <text x="791" y="68" class="tab tab-active">项目方案</text>
    <rect x="940" y="36" width="162" height="48" rx="24" fill="#d8dcfa"/>
    <text x="981" y="68" class="tab">系统原型</text>
    <rect x="1130" y="36" width="162" height="48" rx="24" fill="#d8dcfa"/>
    <text x="1171" y="68" class="tab">项目管理</text>
  </g>

  <text x="72" y="164" class="cardTitle">一套底座，两端分工</text>
  <text x="72" y="194" class="cardSub">这一页强调的不是“系统有多少功能”，而是“教师端和学生端如何围绕同一套节点语言协作”</text>

  <g filter="url(#shadow)">
    <rect x="72" y="234" width="1456" height="100" rx="28" fill="#ffffff" stroke="#d9def4" stroke-width="2"/>
    <line x1="132" y1="284" x2="1468" y2="284" stroke="#d9deee" stroke-width="4"/>
    <line x1="132" y1="284" x2="1468" y2="284" stroke="#aab3d3" stroke-width="4" marker-end="url(#arrow)"/>
    <circle cx="250" cy="284" r="20" fill="url(#rose)" stroke="#efbcc7" stroke-width="2"/>
    <circle cx="550" cy="284" r="20" fill="url(#blue)" stroke="#c5d4f2" stroke-width="2"/>
    <circle cx="850" cy="284" r="20" fill="url(#green)" stroke="#c2e5d0" stroke-width="2"/>
    <circle cx="1150" cy="284" r="20" fill="url(#amber)" stroke="#efd7b5" stroke-width="2"/>
    <circle cx="1392" cy="284" r="20" fill="#ffffff" stroke="#cfd6ea" stroke-width="2"/>
    <text x="244" y="290" class="chip">1</text>
    <text x="544" y="290" class="chip">2</text>
    <text x="844" y="290" class="chip">3</text>
    <text x="1144" y="290" class="chip">4</text>
    <text x="1386" y="290" class="chip">5</text>
    <text x="204" y="260" class="main">题目需求</text>
    <text x="510" y="260" class="main">内容梳理</text>
    <text x="790" y="260" class="main">节点化底座</text>
    <text x="1090" y="260" class="main">双端协作</text>
    <text x="1344" y="260" class="main">学习闭环</text>
    <text x="188" y="318" class="sub">讲授 / 问答 / 续接</text>
    <text x="508" y="318" class="sub">把题目翻译成内容结构</text>
    <text x="796" y="318" class="sub">统一内容、上下文、状态</text>
    <text x="1093" y="318" class="sub">教师端生成，学生端续学</text>
    <text x="1332" y="318" class="sub">最终回到教学闭环</text>
  </g>

  <g filter="url(#shadow)">
    <rect x="220" y="358" width="1160" height="126" rx="26" fill="#ffffff" stroke="#d9def4" stroke-width="2"/>
    <rect x="220" y="358" width="1160" height="10" rx="5" fill="#7e9ef0"/>
    <text x="258" y="404" class="cardTitle">节点化学习底座</text>
    <text x="258" y="432" class="cardSub">同一底座同时支撑教师端生成和学生端续学</text>

    <rect x="258" y="450" width="330" height="46" rx="18" fill="#f4f8ff" stroke="#d7e2f4"/>
    <text x="282" y="478" class="rowTitle">统一内容</text>
    <text x="410" y="478" class="rowBody">页级摘要 + 节点聚合</text>

    <rect x="635" y="450" width="330" height="46" rx="18" fill="#f4fff8" stroke="#d9efe1"/>
    <text x="659" y="478" class="rowTitle">统一上下文</text>
    <text x="801" y="478" class="rowBody">当前页 + 节点ID + 前后关系</text>

    <rect x="1012" y="450" width="330" height="46" rx="18" fill="#fffaf2" stroke="#f0dfc0"/>
    <text x="1036" y="478" class="rowTitle">统一状态</text>
    <text x="1154" y="478" class="rowBody">理解度 + 续接策略 + 进度</text>
  </g>

  <line x1="800" y1="484" x2="800" y2="520" stroke="#b9c0db" stroke-width="4" marker-end="url(#arrow)"/>
  <line x1="800" y1="520" x2="408" y2="520" stroke="#b9c0db" stroke-width="4" marker-end="url(#arrow)"/>
  <line x1="800" y1="520" x2="1192" y2="520" stroke="#b9c0db" stroke-width="4" marker-end="url(#arrow)"/>

  <g filter="url(#shadow)">
    <rect x="72" y="524" width="690" height="250" rx="26" fill="#ffffff" stroke="#efdfc5" stroke-width="2"/>
    <rect x="838" y="524" width="690" height="250" rx="26" fill="#ffffff" stroke="#c8d7f4" stroke-width="2"/>
    <rect x="72" y="524" width="690" height="10" rx="5" fill="#e0b15f"/>
    <rect x="838" y="524" width="690" height="10" rx="5" fill="#7e9ef0"/>

    <circle cx="108" cy="568" r="18" fill="url(#amber)" stroke="#efd7b5" stroke-width="2"/>
    <text x="102" y="574" class="chip">T</text>
    <text x="138" y="574" class="cardTitle">教师端</text>
    <text x="138" y="600" class="cardSub">生成 / 编辑 / 发布</text>

    <rect x="106" y="624" width="272" height="42" rx="18" fill="#fffaf2" stroke="#f0dfc0"/>
    <text x="124" y="651" class="rowTitle">页级摘要</text>
    <text x="250" y="651" class="rowBody">先把每页内容压缩成可用信息</text>
    <rect x="106" y="676" width="272" height="42" rx="18" fill="#fffaf2" stroke="#f0dfc0"/>
    <text x="124" y="703" class="rowTitle">节点聚合</text>
    <text x="250" y="703" class="rowBody">跨页知识点被组织到同一讲授链</text>
    <rect x="106" y="728" width="272" height="42" rx="18" fill="#fffaf2" stroke="#f0dfc0"/>
    <text x="124" y="755" class="rowTitle">脚本生成</text>
    <text x="250" y="755" class="rowBody">形成开场白 / 讲解 / 过渡语</text>

    <rect x="416" y="624" width="304" height="42" rx="18" fill="#fff7ec" stroke="#efd7b5"/>
    <text x="436" y="651" class="note">教师可编辑的不是一大段文本，而是节点化脚本。</text>
    <rect x="416" y="676" width="304" height="42" rx="18" fill="#fff7ec" stroke="#efd7b5"/>
    <text x="436" y="703" class="note">开场白 / 讲解 / 过渡语 / 播放时长</text>
    <rect x="416" y="728" width="304" height="42" rx="18" fill="#fff7ec" stroke="#efd7b5"/>
    <text x="436" y="755" class="note">AI 生成，教师把控节奏和最终呈现</text>

    <circle cx="874" cy="568" r="18" fill="url(#blue)" stroke="#c5d4f2" stroke-width="2"/>
    <text x="868" y="574" class="chip">S</text>
    <text x="904" y="574" class="cardTitle">学生端</text>
    <text x="904" y="600" class="cardSub">提问 / 理解 / 续接</text>

    <rect x="872" y="624" width="272" height="42" rx="18" fill="#f4f8ff" stroke="#d7e2f4"/>
    <text x="890" y="651" class="rowTitle">当前页优先</text>
    <text x="1022" y="651" class="rowBody">提问围绕正在看的内容</text>
    <rect x="872" y="676" width="272" height="42" rx="18" fill="#f4f8ff" stroke="#d7e2f4"/>
    <text x="890" y="703" class="rowTitle">理解判断</text>
    <text x="1022" y="703" class="rowBody">判断是否需要补讲</text>
    <rect x="872" y="728" width="272" height="42" rx="18" fill="#f4f8ff" stroke="#d7e2f4"/>
    <text x="890" y="755" class="rowTitle">续接策略</text>
    <text x="1022" y="755" class="rowBody">补讲 / 重讲 / 继续推进</text>

    <rect x="1182" y="624" width="304" height="42" rx="18" fill="#eef5ff" stroke="#d7e2f4"/>
    <text x="1202" y="651" class="note">系统接住断点，学习不被打断。</text>
    <rect x="1182" y="676" width="304" height="42" rx="18" fill="#eef5ff" stroke="#d7e2f4"/>
    <text x="1202" y="703" class="note">回答要回链到具体节点和当前页。</text>
    <rect x="1182" y="728" width="304" height="42" rx="18" fill="#eef5ff" stroke="#d7e2f4"/>
    <text x="1202" y="755" class="note">提问、理解、续接构成学生侧闭环。</text>
  </g>

  <g filter="url(#shadow)">
    <rect x="72" y="804" width="1456" height="62" rx="20" fill="#ffffff" stroke="#d9def4" stroke-width="2"/>
    <rect x="94" y="814" width="380" height="40" rx="16" fill="#f6f8ff" stroke="#d7e2f4" stroke-width="1.5"/>
    <rect x="484" y="814" width="380" height="40" rx="16" fill="#f5fbff" stroke="#c8d7f4" stroke-width="1.5"/>
    <rect x="874" y="814" width="380" height="40" rx="16" fill="#f5fff8" stroke="#c7e8d4" stroke-width="1.5"/>
    <rect x="1264" y="814" width="242" height="40" rx="16" fill="#fffaf2" stroke="#f0dfc0" stroke-width="1.5"/>
  </g>
  <text x="118" y="840" class="summary">系统级：教学闭环</text>
  <text x="508" y="840" class="summary">中观级：双端协作</text>
  <text x="898" y="840" class="summary">微观级：页 / 节点 / 秒</text>
  <text x="1286" y="840" class="summary">量化：node-insights</text>
  <text x="1286" y="860" class="note muted">提问 / 笔记 / 正确率 / 重讲率 / 7日趋势</text>
</svg>