<svg xmlns="http://www.w3.org/2000/svg" viewBox="0 0 1280 720" width="1280" height="720">
  <defs>
    <linearGradient id="topBar" x1="0%" y1="0%" x2="100%" y2="0%"><stop offset="0%" stop-color="#1E6FE0" /><stop offset="100%" stop-color="#3A7BED" /></linearGradient>
  </defs>
  <rect width="1280" height="720" fill="#FFFFFF" /><rect width="1280" height="4" fill="url(#topBar)" />
  <text x="55" y="30" font-family="Arial, Microsoft YaHei, sans-serif" font-size="13" fill="#1E6FE0" font-weight="bold" letter-spacing="1">泛雅 AI 智课</text>
  <path fill="#1E6FE0" d="M59,45 H331 A4,4 0 0 1 335,49 V73 A4,4 0 0 1 331,77 H59 A4,4 0 0 1 55,73 V49 A4,4 0 0 1 59,45 Z" /><text x="195" y="66" font-family="Arial, Microsoft YaHei, sans-serif" font-size="12" fill="#FFFFFF" text-anchor="middle" font-weight="bold">项目背景</text>
  <path fill="#E8EDF5" d="M349,45 H621 A4,4 0 0 1 625,49 V73 A4,4 0 0 1 621,77 H349 A4,4 0 0 1 345,73 V49 A4,4 0 0 1 349,45 Z" /><text x="485" y="66" font-family="Arial, Microsoft YaHei, sans-serif" font-size="12" fill="#5A6478" text-anchor="middle">解决方案</text>
  <path fill="#E8EDF5" d="M639,45 H911 A4,4 0 0 1 915,49 V73 A4,4 0 0 1 911,77 H639 A4,4 0 0 1 635,73 V49 A4,4 0 0 1 639,45 Z" /><text x="775" y="66" font-family="Arial, Microsoft YaHei, sans-serif" font-size="12" fill="#5A6478" text-anchor="middle">系统实现</text>
  <path fill="#E8EDF5" d="M929,45 H1201 A4,4 0 0 1 1205,49 V73 A4,4 0 0 1 1201,77 H929 A4,4 0 0 1 925,73 V49 A4,4 0 0 1 929,45 Z" /><text x="1065" y="66" font-family="Arial, Microsoft YaHei, sans-serif" font-size="12" fill="#5A6478" text-anchor="middle">项目总结</text>

  <text x="55" y="105" font-family="Arial, Microsoft YaHei, sans-serif" font-size="28" fill="#1D2433" font-weight="bold">一份课件，能不能“秒变”智课？</text>
  <path fill="#0E8C80" d="M56.50,118 H103.50 A1.50,1.50 0 0 1 105,119.50 V119.50 A1.50,1.50 0 0 1 103.50,121 H56.50 A1.50,1.50 0 0 1 55,119.50 V119.50 A1.50,1.50 0 0 1 56.50,118 Z" />

  
  <path fill="#FFFFFF" stroke="#D0D7E2" stroke-width="1.5" d="M67,150 H413 A12,12 0 0 1 425,162 V378 A12,12 0 0 1 413,390 H67 A12,12 0 0 1 55,378 V162 A12,12 0 0 1 67,150 Z" />
  <circle cx="240" cy="185" r="28" fill="#DDE6FF" />
  <text x="240" y="191" font-family="Arial, Microsoft YaHei, sans-serif" font-size="22" fill="#1E6FE0" text-anchor="middle" font-weight="bold">?</text>
  <text x="240" y="230" font-family="Arial, Microsoft YaHei, sans-serif" font-size="17" fill="#1D2433" text-anchor="middle" font-weight="bold">能不能让课件自己会讲？</text>
  <text x="240" y="260" font-family="Arial, Microsoft YaHei, sans-serif" font-size="13" fill="#5A6478" text-anchor="middle">教师上传课件后，自动生成</text>
  <text x="240" y="280" font-family="Arial, Microsoft YaHei, sans-serif" font-size="13" fill="#5A6478" text-anchor="middle">结构化讲稿，而非逐字撰写</text>
  <text x="240" y="310" font-family="Arial, Microsoft YaHei, sans-serif" font-size="12" fill="#1E6FE0" text-anchor="middle">→ 传即生成讲稿</text>

  <path fill="#FFFFFF" stroke="#D0D7E2" stroke-width="1.5" d="M472,150 H818 A12,12 0 0 1 830,162 V378 A12,12 0 0 1 818,390 H472 A12,12 0 0 1 460,378 V162 A12,12 0 0 1 472,150 Z" />
  <circle cx="645" cy="185" r="28" fill="#D6DEF5" />
  <text x="645" y="191" font-family="Arial, Microsoft YaHei, sans-serif" font-size="22" fill="#0E8C80" text-anchor="middle" font-weight="bold">?</text>
  <text x="645" y="230" font-family="Arial, Microsoft YaHei, sans-serif" font-size="17" fill="#1D2433" text-anchor="middle" font-weight="bold">能不能边学边问边溯源？</text>
  <text x="645" y="260" font-family="Arial, Microsoft YaHei, sans-serif" font-size="13" fill="#5A6478" text-anchor="middle">学生随时提问，系统基于当前</text>
  <text x="645" y="280" font-family="Arial, Microsoft YaHei, sans-serif" font-size="13" fill="#5A6478" text-anchor="middle">课件内容给出引导式回答</text>
  <text x="645" y="310" font-family="Arial, Microsoft YaHei, sans-serif" font-size="12" fill="#0E8C80" text-anchor="middle">→ 问答秒级响应</text>

  <path fill="#FFFFFF" stroke="#D0D7E2" stroke-width="1.5" d="M872,150 H1213 A12,12 0 0 1 1225,162 V378 A12,12 0 0 1 1213,390 H872 A12,12 0 0 1 860,378 V162 A12,12 0 0 1 872,150 Z" />
  <circle cx="1042" cy="185" r="28" fill="#DDE6FF" />
  <text x="1042" y="191" font-family="Arial, Microsoft YaHei, sans-serif" font-size="22" fill="#7B5BE0" text-anchor="middle" font-weight="bold">?</text>
  <text x="1042" y="230" font-family="Arial, Microsoft YaHei, sans-serif" font-size="17" fill="#1D2433" text-anchor="middle" font-weight="bold">能不能打断后自动续接？</text>
  <text x="1042" y="260" font-family="Arial, Microsoft YaHei, sans-serif" font-size="13" fill="#5A6478" text-anchor="middle">学习过程中断后，系统自动</text>
  <text x="1042" y="280" font-family="Arial, Microsoft YaHei, sans-serif" font-size="13" fill="#5A6478" text-anchor="middle">判断理解程度并精确恢复</text>
  <text x="1042" y="310" font-family="Arial, Microsoft YaHei, sans-serif" font-size="12" fill="#7B5BE0" text-anchor="middle">→ 打断后自动续接</text>

  
  <path fill="#F4F7FC" d="M65,430 H1215 A10,10 0 0 1 1225,440 V520 A10,10 0 0 1 1215,530 H65 A10,10 0 0 1 55,520 V440 A10,10 0 0 1 65,430 Z" />
  <text x="640" y="465" font-family="Arial, Microsoft YaHei, sans-serif" font-size="16" fill="#1D2433" text-anchor="middle" font-weight="bold">现实情况是……（翻下一页）</text>
  <text x="640" y="495" font-family="Arial, Microsoft YaHei, sans-serif" font-size="12" fill="#5A6478" text-anchor="middle">现有的静态课件模式和通用AI方案，还无法很好地实现这三个目标</text>

  <path fill="#1E6FE0" fill-opacity="0.08" d="M65,570 H1215 A10,10 0 0 1 1225,580 V630 A10,10 0 0 1 1215,640 H65 A10,10 0 0 1 55,630 V580 A10,10 0 0 1 65,570 Z" />
  <text x="640" y="600" font-family="Arial, Microsoft YaHei, sans-serif" font-size="13" fill="#1E6FE0" text-anchor="middle" font-weight="bold">那么痛点在哪里？问题出在什么地方？</text>
  <text x="640" y="620" font-family="Arial, Microsoft YaHei, sans-serif" font-size="11" fill="#5A6478" text-anchor="middle">翻到下一页看分析 →</text>

  <rect x="55" y="690" width="1170" height="1" fill="#D0D7E2" />
  <text x="55" y="708" font-family="Arial, Microsoft YaHei, sans-serif" font-size="10" fill="#9AA3B5">泛雅 AI 互动智课系统</text>
  <text x="1225" y="708" font-family="Arial, Microsoft YaHei, sans-serif" font-size="10" fill="#9AA3B5" text-anchor="end">02</text>
</svg>